<?xml version="1.0" encoding="utf-8"?>
<svg version="1.1" xmlns="http://www.w3.org/2000/svg" x="0px" y="0px" viewBox="0 0 128 128">
<path fill="FILL_COLOR" d="M64,16c26.5,0,48,21.5,48,48s-21.5,48-48,48S16,90.5,16,64S37.5,16,64,16 M64,4C30.9,4,4,30.9,4,64s26.9,60,60,60s60-26.9,60-60S97.1,4,64,4L64,4z"/>
<g>
	<path fill="FILL_COLOR" d="M87.5,48.9c0,2.7-0.4,5.2-1.2,7.3c-0.8,2.2-2,4-3.6,5.6c-1.5,1.6-3.4,2.9-5.6,3.8c-2.2,1-4.6,1.6-7.3,2
		l-0.5,9.2H59.1l-0.9-18.4h7.1c1.6,0,3-0.2,4.1-0.7c1.2-0.5,2.1-1.1,2.8-1.9s1.3-1.7,1.6-2.7s0.5-2.1,0.5-3.2c0-1.6-0.3-3-1-4.4
		c-0.7-1.4-1.7-2.5-3.1-3.6s-3.2-1.8-5.4-2.4c-2.2-0.6-4.8-0.9-7.9-0.9h-2.9V27.7h3.4c5,0,9.4,0.6,13.1,1.8c3.7,1.2,6.9,2.8,9.4,4.7
		c2.5,2,4.4,4.2,5.6,6.8C86.9,43.6,87.5,46.2,87.5,48.9z M72.3,90.1c0,1.1-0.2,2.1-0.6,3c-0.4,0.9-1,1.8-1.7,2.5
		c-0.7,0.7-1.6,1.3-2.5,1.7c-1,0.4-2,0.6-3.1,0.6c-1.1,0-2.1-0.2-3.1-0.6c-1-0.4-1.8-1-2.5-1.7C58,94.9,57.4,94,57,93.1
		c-0.4-0.9-0.6-2-0.6-3s0.2-2.1,0.6-3c0.4-0.9,1-1.8,1.7-2.5c0.7-0.7,1.6-1.3,2.5-1.7c1-0.4,2-0.6,3.1-0.6c1.1,0,2.1,0.2,3.1,0.6
		s1.8,1,2.5,1.7c0.7,0.7,1.3,1.5,1.7,2.5C72.1,88,72.3,89,72.3,90.1z"/>
</g>
</svg>
