<svg version="1.1" xmlns="http://www.w3.org/2000/svg" xmlns:xlink="http://www.w3.org/1999/xlink" viewBox="0 0 128 128">

<path fill="currentColor" d="M64,16c26.5,0,48,21.5,48,48s-21.5,48-48,48S16,90.5,16,64S37.5,16,64,16 M64,4C30.9,4,4,30.9,4,64s26.9,60,60,60
	s60-26.9,60-60S97.1,4,64,4L64,4z"/>
<g>
	<path fill="currentColor" d="M73.1,52.6l-9.4,32.7c-0.5,1.9-0.8,3.1-0.8,3.7c0,0.3,0.1,0.7,0.4,0.9c0.3,0.3,0.6,0.4,0.9,0.4c0.5,0,1-0.2,1.6-0.7
		c1.4-1.1,3-3.2,5-6.2l1.6,0.9c-4.6,8.1-9.5,12.1-14.7,12.1c-2,0-3.6-0.6-4.8-1.7c-1.2-1.1-1.8-2.5-1.8-4.2c0-1.1,0.3-2.6,0.8-4.3
		l6.4-22c0.6-2.1,0.9-3.7,0.9-4.8c0-0.7-0.3-1.3-0.9-1.8c-0.6-0.5-1.4-0.8-2.4-0.8c-0.5,0-1,0-1.7,0l0.6-1.8l15.6-2.5H73.1z
		 M70.2,31.5c1.9,0,3.5,0.7,4.8,2c1.3,1.3,2,2.9,2,4.8c0,1.9-0.7,3.5-2,4.8c-1.3,1.3-2.9,2-4.8,2c-1.8,0-3.4-0.7-4.7-2
		c-1.3-1.3-2-2.9-2-4.8c0-1.9,0.7-3.5,2-4.8C66.8,32.2,68.4,31.5,70.2,31.5z"/>
</g>
</svg>
