<svg version="1.1" xmlns="http://www.w3.org/2000/svg" xmlns:xlink="http://www.w3.org/1999/xlink" viewBox="0 0 128 128" xml:space="preserve">
<style type="text/css">
	.st0{fill:none;stroke:currentColor;stroke-width:11;stroke-linecap:round;stroke-miterlimit:10;}
	.st1{fill:currentColor;}
</style>
<line class="st0" x1="77.8" y1="64.2" x2="20.1" y2="64.2"/>
<path class="st1" d="M23.6,64l9.6,13.1c6.3,7.3-3.5,11.3-10.6,6.3L9.1,69.8C6,66.7,6,61.6,9.1,58.5l13.5-13.5
	c7.1-6,16.9-1.3,10.9,6.1L23.6,64C26.7,67.1,26.7,60.9,23.6,64z"/>
<path class="st0" d="M41,29.4c0-8.5,0.9-8.1,2.2-9.4c1.3-1.3,3.2-1.8,5.1-1.8h30h30c1.9,0,3.7,0.8,4.9,2.1c1.3,1.3,2.1,3,2.1,4.9
	v38.7v38.7c0,1.9-0.8,3.7-2.1,4.9c-1.3,1.3-3,2.1-4.9,2.1h-30h-30c-1.9,0-4-0.5-5.3-1.8c-2.8-2.8-2-6.9-2-8.8"/>
</svg>
