<svg version="1.1" xmlns="http://www.w3.org/2000/svg" viewBox="0 0 128 128">
	<path fill="currentColor" d="M64,16c26.5,0,48,21.5,48,48s-21.5,48-48,48S16,90.5,16,64S37.5,16,64,16 M64,4C30.9,4,4,30.9,4,64s26.9,60,60,60s60-26.9,60-60S97.1,4,64,4L64,4z"/>
	<path fill="currentColor" d="M52,96h-0.9c-2.8,0-5-2.2-5-5V37.5c0-2.7,2.2-5,5-5H52c2.8,0,5,2.3,5,5V91C57,93.7,54.8,96,52,96z"/>
	<path fill="currentColor" d="M77,96.3h-1.1c-2.8,0-5-2.3-5-5V37.2c0-2.7,2.3-5,5-5H77c2.7,0,5,2.2,5,5v54.1C82,94,79.8,96.3,77,96.3z"/>
</svg>
