<svg version="1.1" xmlns="http://www.w3.org/2000/svg" xmlns:xlink="http://www.w3.org/1999/xlink"
	 viewBox="0 0 128 128" style="enable-background:new 0 0 128 128;" xml:space="preserve">
<style type="text/css">
	.st0{fill:none;stroke:currentColor;stroke-width:7;stroke-linejoin:round;stroke-miterlimit:10;}
</style>
<g>
	<path class="st0" d="M104.5,74.8c-0.9,3.4-2.3,6.7-4,9.7l8.5,13.4L97.9,109l-13.4-8.5c-3,1.7-6.3,3.1-9.7,4L71.3,120H55.7
		l-3.4-15.5c-3.4-0.9-6.7-2.3-9.7-4L29.1,109L18,97.9l8.5-13.4c-1.7-3-3.1-6.3-4-9.7L7,71.3V55.6l15.5-3.4c0.9-3.4,2.3-6.7,4-9.7
		L18,29.1L29.1,18l13.4,8.5c3-1.7,6.3-3.1,9.7-4L55.7,7h15.7l3.4,15.5c3.4,0.9,6.7,2.3,9.7,4L97.9,18L109,29.1l-8.5,13.4
		c1.7,3,3.1,6.3,4,9.7l15.5,3.4v15.7L104.5,74.8z"/>
</g>
<circle class="st0" cx="64" cy="63" r="20"/>
</svg>
