<svg xmlns="http://www.w3.org/2000/svg" viewBox="0 0 116 100.46">
    <path fill="currentColor" d="M64,22l44.14,76.46H19.86L64,22M64,6,6,106.49H122L64,6Z" transform="translate(-6 -6.03)"/>
    <path fill="currentColor" d="M63.93,80.88a5.2,5.2,0,0,1,2,.41,5.34,5.34,0,0,1,1.66,1.12,5.43,5.43,0,0,1,1.12,1.68,4.94,4.94,0,0,1,.41,2.07,5.11,5.11,0,0,1-.43,2.07A5.29,5.29,0,0,1,65.92,91a5.37,5.37,0,0,1-2,.39,5.2,5.2,0,0,1-2-.41,5.28,5.28,0,0,1-1.66-1.12,5.05,5.05,0,0,1-1.1-1.68,5.43,5.43,0,0,1,0-4.14,5,5,0,0,1,1.12-1.66,5.19,5.19,0,0,1,1.67-1.11A5.37,5.37,0,0,1,63.93,80.88ZM67.49,77l-7,0L59.36,43l9.54,0Z" transform="translate(-6 -6.03)"/>
</svg>